<svg xmlns="http://www.w3.org/2000/svg" width="67.016" height="67.016" viewBox="0 0 67.016 67.016"><g><g><path d="M56.505 17.162l-4.234 4.234a22.337 22.337 0 11-6.65-6.651l4.232-4.233a28.215 28.215 0 106.651 6.65z" fill="#8dd445"></path></g><g><path d="M.588 34.096A.587.587 0 010 33.508 33.546 33.546 0 0133.508 0a.588.588 0 110 1.176A32.37 32.37 0 001.176 33.508a.587.587 0 01-.588.588z" fill="#263238"></path></g><g><path d="M37.035 1.176h-1.176a.588.588 0 010-1.176h1.176a.588.588 0 010 1.176z" fill="#263238"></path></g><g><path d="M33.508 67.016a.588.588 0 010-1.176A32.369 32.369 0 0065.84 33.508a.588.588 0 111.176 0 33.546 33.546 0 01-33.508 33.508z" fill="#263238"></path></g><g><path d="M31.157 67.016h-1.176a.588.588 0 010-1.176h1.176a.588.588 0 010 1.176z" fill="#263238"></path></g><g><path d="M52.319 3.527h-4.7a.588.588 0 010-1.176h4.7a.588.588 0 110 1.176z" fill="#263238"></path></g><g><path d="M49.968 5.879a.587.587 0 01-.588-.588v-4.7a.588.588 0 011.176 0v4.7a.587.587 0 01-.588.588z" fill="#263238"></path></g><g><path d="M66.428 18.224h-4.7a.588.588 0 010-1.176h4.7a.588.588 0 010 1.176z" fill="#263238"></path></g><g><path d="M64.076 20.575a.587.587 0 01-.588-.588v-4.7a.588.588 0 011.176 0v4.7a.587.587 0 01-.588.588z" fill="#263238"></path></g><g><path d="M65.931 7.736l-6.651 6.651-5.819-.831-.831-5.82 6.651-6.651.831 5.819z" fill="#edfafe"></path><path d="M59.28 14.975a.482.482 0 01-.082-.006l-5.82-.831a.589.589 0 01-.5-.5l-.831-5.823a.593.593 0 01.167-.5l6.65-6.65a.588.588 0 011 .332l.769 5.384 5.382.769a.587.587 0 01.334 1l-6.652 6.652a.587.587 0 01-.417.173zm-5.3-1.939l5.091.728 5.613-5.613-4.656-.664a.589.589 0 01-.5-.5l-.665-4.656-5.611 5.612z" fill="#263238"></path></g><g><path d="M53.46 13.556l-.415-2.91-21.2 21.2a2.352 2.352 0 003.325 3.326l21.2-21.2z" fill="#edfafe"></path><path d="M33.508 36.444a2.938 2.938 0 01-2.079-5.016l21.2-21.2a.588.588 0 011 .333l.354 2.474 2.474.353a.588.588 0 01.332 1l-21.2 21.2a2.928 2.928 0 01-2.081.856zM52.63 11.892L32.261 32.26a1.764 1.764 0 002.494 2.494l20.369-20.367-1.747-.249a.588.588 0 01-.5-.5z" fill="#263238"></path></g><g><path d="M47.983 25.684l-4.455 4.455a10.581 10.581 0 11-6.651-6.651l4.456-4.455a16.461 16.461 0 106.65 6.651z" fill="#8dd445"></path></g><g><path d="M52.271 21.395l-4.288 4.288a16.459 16.459 0 11-6.65-6.651l4.288-4.288a22.34 22.34 0 106.65 6.651z" fill="#fff"></path></g><g><path d="M33.508 62.3a28.8 28.8 0 1116.687-52.267.588.588 0 01-.682.958 27.629 27.629 0 106.512 6.512.588.588 0 01.958-.682A28.788 28.788 0 0133.507 62.3z" fill="#263238"></path></g><g><path d="M33.507 56.427a22.92 22.92 0 1112.429-42.176.588.588 0 11-.639.988 21.847 21.847 0 00-27.173 2.89 21.75 21.75 0 0030.759 30.76 21.847 21.847 0 002.89-27.174.588.588 0 01.988-.638 22.91 22.91 0 01-19.254 35.35z" fill="#263238"></path></g><g><path d="M33.508 50.556a17.048 17.048 0 01-12.055-29.1 17.148 17.148 0 0120.162-2.941.588.588 0 01-.56 1.035 15.959 15.959 0 00-18.768 2.735 15.872 15.872 0 0022.447 22.447 15.967 15.967 0 002.736-18.769.587.587 0 111.033-.558 17.147 17.147 0 01-2.938 20.159 16.934 16.934 0 01-12.057 4.992z" fill="#263238"></path></g><g><path d="M33.508 44.673a11.164 11.164 0 113.557-21.742.588.588 0 11-.374 1.115 9.993 9.993 0 106.282 6.281.587.587 0 111.113-.374 11.151 11.151 0 01-10.578 14.721z" fill="#263238"></path></g><g><path d="M53.457 14.144a.588.588 0 01-.416-1l6.65-6.651a.588.588 0 01.831.831l-6.65 6.651a.584.584 0 01-.415.169z" fill="#263238"></path></g></g></svg>