<svg width="20" height="21" viewBox="0 0 20 21" fill="none" xmlns="http://www.w3.org/2000/svg">
<path d="M10 20.0171C8.61667 20.0171 7.31667 19.7544 6.1 19.2291C4.88333 18.7044 3.825 17.9921 2.925 17.0921C2.025 16.1921 1.31267 15.1338 0.788 13.9171C0.262667 12.7004 0 11.4004 0 10.0171C0 8.63376 0.262667 7.33376 0.788 6.11709C1.31267 4.90042 2.025 3.84209 2.925 2.94209C3.825 2.04209 4.88333 1.32942 6.1 0.80409C7.31667 0.279423 8.61667 0.0170898 10 0.0170898C11.0833 0.0170898 12.1083 0.175423 13.075 0.49209C14.0417 0.808756 14.9333 1.25042 15.75 1.81709L14.3 3.29209C13.6667 2.89209 12.9917 2.57942 12.275 2.35409C11.5583 2.12942 10.8 2.01709 10 2.01709C7.78333 2.01709 5.896 2.79609 4.338 4.35409C2.77933 5.91276 2 7.80042 2 10.0171C2 12.2338 2.77933 14.1214 4.338 15.6801C5.896 17.2381 7.78333 18.0171 10 18.0171C12.2167 18.0171 14.1043 17.2381 15.663 15.6801C17.221 14.1214 18 12.2338 18 10.0171C18 9.71709 17.9833 9.41709 17.95 9.11709C17.9167 8.81709 17.8667 8.52542 17.8 8.24209L19.425 6.61709C19.6083 7.15042 19.75 7.70042 19.85 8.26709C19.95 8.83376 20 9.41709 20 10.0171C20 11.4004 19.7373 12.7004 19.212 13.9171C18.6873 15.1338 17.975 16.1921 17.075 17.0921C16.175 17.9921 15.1167 18.7044 13.9 19.2291C12.6833 19.7544 11.3833 20.0171 10 20.0171ZM8.6 14.6171L4.35 10.3671L5.75 8.96709L8.6 11.8171L18.6 1.79209L20 3.19209L8.6 14.6171Z" fill="#58AF4A"/>
</svg>
