<svg width="20" height="20" viewBox="0 0 20 20" fill="none" xmlns="http://www.w3.org/2000/svg">
<path d="M8.59007 11.4103C9.00007 11.8003 9.00007 12.4403 8.59007 12.8303C8.20007 13.2203 7.56007 13.2203 7.17007 12.8303C5.22007 10.8803 5.22007 7.71031 7.17007 5.76031L10.7101 2.22031C12.6601 0.270313 15.8301 0.270313 17.7801 2.22031C19.7301 4.17031 19.7301 7.34031 17.7801 9.29031L16.2901 10.7803C16.3001 9.96031 16.1701 9.14031 15.8901 8.36031L16.3601 7.88031C17.5401 6.71031 17.5401 4.81031 16.3601 3.64031C15.1901 2.46031 13.2901 2.46031 12.1201 3.64031L8.59007 7.17031C7.41007 8.34031 7.41007 10.2403 8.59007 11.4103ZM11.4101 7.17031C11.8001 6.78031 12.4401 6.78031 12.8301 7.17031C14.7801 9.12031 14.7801 12.2903 12.8301 14.2403L9.29007 17.7803C7.34007 19.7303 4.17007 19.7303 2.22007 17.7803C0.270068 15.8303 0.270068 12.6603 2.22007 10.7103L3.71007 9.22031C3.70007 10.0403 3.83007 10.8603 4.11007 11.6503L3.64007 12.1203C2.46007 13.2903 2.46007 15.1903 3.64007 16.3603C4.81007 17.5403 6.71007 17.5403 7.88007 16.3603L11.4101 12.8303C12.5901 11.6603 12.5901 9.76031 11.4101 8.59031C11.0001 8.20031 11.0001 7.56031 11.4101 7.17031Z" fill="#0F56F5"/>
</svg>
