<svg xmlns="http://www.w3.org/2000/svg" width="86.904" height="75.506" viewBox="0 0 86.904 75.506"><g><g><path d="M18.761 29.626l4.408-4.408a3.556 3.556 0 001.043-2.517v-6.234a3.561 3.561 0 013.562-3.562h6.233a3.562 3.562 0 002.519-1.043l4.408-4.408a3.563 3.563 0 015.038 0l4.408 4.408a3.556 3.556 0 002.517 1.043h6.234a3.561 3.561 0 013.562 3.562v6.234a3.556 3.556 0 001.043 2.517l4.408 4.408a3.563 3.563 0 010 5.037l-4.408 4.408a3.558 3.558 0 00-1.043 2.517v6.234a3.561 3.561 0 01-3.562 3.562h-6.234a3.555 3.555 0 00-2.517 1.043l-4.408 4.408a3.563 3.563 0 01-5.038 0l-4.408-4.408a3.561 3.561 0 00-2.519-1.043h-6.233a3.561 3.561 0 01-3.562-3.562v-6.234a3.558 3.558 0 00-1.043-2.517l-4.408-4.408a3.563 3.563 0 010-5.037z" fill="#e0f4cb"></path><path d="M43.452 58.589a4.262 4.262 0 01-3.023-1.249l-4.406-4.408a2.83 2.83 0 00-2.014-.835h-6.235a4.279 4.279 0 01-4.274-4.274v-6.234a2.83 2.83 0 00-.835-2.014l-4.408-4.408a4.275 4.275 0 010-6.043l4.408-4.409a2.827 2.827 0 00.835-2.014v-6.233a4.279 4.279 0 014.274-4.274h6.234a2.83 2.83 0 002.014-.835l4.406-4.406a4.378 4.378 0 016.045 0l4.408 4.406a2.831 2.831 0 002.014.835h6.234a4.279 4.279 0 014.274 4.274v6.233a2.828 2.828 0 00.835 2.014l4.406 4.409a4.272 4.272 0 010 6.043l-4.406 4.408a2.83 2.83 0 00-.835 2.014v6.234a4.279 4.279 0 01-4.274 4.274h-6.234a2.825 2.825 0 00-2.013.835l-4.409 4.408a4.259 4.259 0 01-3.021 1.249zM27.774 13.617a2.853 2.853 0 00-2.849 2.849v6.233a4.24 4.24 0 01-1.252 3.022l-4.408 4.409a2.851 2.851 0 000 4.029l4.408 4.408a4.239 4.239 0 011.252 3.021v6.234a2.852 2.852 0 002.849 2.849h6.234a4.246 4.246 0 013.022 1.252l4.406 4.408a2.856 2.856 0 004.03 0l4.408-4.408a4.246 4.246 0 013.022-1.252h6.234a2.852 2.852 0 002.849-2.849v-6.234a4.239 4.239 0 011.252-3.021l4.406-4.408a2.848 2.848 0 000-4.029l-4.406-4.409a4.24 4.24 0 01-1.252-3.022v-6.233a2.853 2.853 0 00-2.849-2.849h-6.234a4.244 4.244 0 01-3.022-1.252l-4.408-4.406a2.918 2.918 0 00-4.03 0l-4.406 4.406a4.244 4.244 0 01-3.022 1.252zm-9.012 16.01z" fill="#263238"></path></g><g><path d="M52.896 54.232a.705.705 0 00-.5.209l-4.408 4.408a6.421 6.421 0 01-2.044 1.375l6.035 14.57 3.855-9.307 9.307 3.855-6.258-15.11z" fill="#8dd445"></path></g><g><path d="M38.919 58.849l-4.408-4.408a.705.705 0 00-.5-.209h-5.984l-6.258 15.11 9.307-3.855 3.855 9.307 6.035-14.57a6.406 6.406 0 01-2.047-1.375z" fill="#8dd445"></path></g><g><path d="M51.975 75.507a.713.713 0 01-.658-.44l-6.035-14.57a.712.712 0 111.315-.546l5.378 12.981 3.2-7.717a.71.71 0 01.93-.385l7.719 3.2-5.6-13.521a.712.712 0 111.315-.546l6.26 15.11a.714.714 0 01-.932.932l-8.649-3.583-3.582 8.648a.712.712 0 01-.661.437z" fill="#263238"></path></g><g><path d="M34.931 75.507a.713.713 0 01-.658-.44l-3.583-8.648-8.648 3.583a.714.714 0 01-.932-.932l6.258-15.11a.713.713 0 111.316.546l-5.6 13.521 7.719-3.2a.71.71 0 01.93.385l3.2 7.717 5.377-12.98a.712.712 0 111.316.546l-6.035 14.569a.712.712 0 01-.66.443z" fill="#263238"></path></g><g><path d="M43.448 47.104a14.959 14.959 0 1114.959-14.959 14.975 14.975 0 01-14.959 14.959zm0-28.493a13.534 13.534 0 1013.534 13.534 13.55 13.55 0 00-13.534-13.534z" fill="#263238"></path></g><g><path d="M53.425 32.856a.712.712 0 01-.712-.712 9.271 9.271 0 00-9.26-9.26.712.712 0 110-1.425 10.7 10.7 0 0110.685 10.685.712.712 0 01-.713.712z" fill="#263238"></path></g><g><path d="M65.624 4.274h-5.7a.712.712 0 110-1.425h5.7a.712.712 0 110 1.425z" fill="#263238"></path></g><g><path d="M62.774 7.123a.713.713 0 01-.712-.712v-5.7a.712.712 0 111.425 0v5.7a.713.713 0 01-.713.712z" fill="#263238"></path></g><g><path d="M74.172 11.398h-5.7a.712.712 0 110-1.425h5.7a.712.712 0 110 1.425z" fill="#263238"></path></g><g><path d="M71.322 14.246a.713.713 0 01-.712-.712v-5.7a.712.712 0 111.425 0v5.7a.713.713 0 01-.713.712z" fill="#263238"></path></g><g><path d="M15.671 44.877H4.986a.712.712 0 110-1.425h10.685a.712.712 0 110 1.425z" fill="#263238"></path></g><g><path d="M2.137 44.877H.712a.712.712 0 110-1.425h1.425a.712.712 0 110 1.425z" fill="#263238"></path></g><g><path d="M81.917 44.877H71.232a.712.712 0 110-1.425h10.685a.712.712 0 110 1.425z" fill="#263238"></path></g><g><path d="M86.191 44.877h-1.425a.712.712 0 110-1.425h1.425a.712.712 0 110 1.425z" fill="#8dd445"></path></g></g></svg>