<svg xmlns="http://www.w3.org/2000/svg" width="65.141" height="80.128" viewBox="0 0 65.141 80.128"><path fill="#263238" d="M21.458 70.018a.626.626 0 01-.443-1.069l4.031-4.031a6.857 6.857 0 012.125-1.447l7.862-3.416a11.887 11.887 0 005.046-4.146L51.47 39.432a.626.626 0 011.03.713L41.109 56.621a13.118 13.118 0 01-5.577 4.583l-7.861 3.416a5.618 5.618 0 00-1.739 1.184l-4.031 4.031a.619.619 0 01-.443.183zM31.912 51.445a6.888 6.888 0 01-2.557-.492l-2.126-.85a6.844 6.844 0 01-3.773-3.683l-2.737-6.385a.626.626 0 011.151-.492l2.736 6.384a5.6 5.6 0 003.088 3.013l2.127.851a5.6 5.6 0 003.2.294l2.227-.446a5.651 5.651 0 003.27-1.973l6.721-8.272a.627.627 0 11.972.791l-6.721 8.271a6.909 6.909 0 01-4 2.412l-2.226.445a6.892 6.892 0 01-1.352.132zM11.274 59.832a.627.627 0 01-.443-1.07l3.134-3.134a8.738 8.738 0 002.529-7.033l-.833-8.748a.627.627 0 01.565-.683.614.614 0 01.681.564l.834 8.749a9.987 9.987 0 01-2.891 8.036l-3.134 3.134a.62.62 0 01-.442.185z"></path><g transform="translate(.539 58.673)"><rect width="20.67" height="9.395" rx="1" transform="rotate(-135 11.782 7.625)" fill="#8dd445"></rect><path fill="#263238" d="M14.725 21.455a1.867 1.867 0 01-1.329-.55L.552 8.061a1.882 1.882 0 010-2.657L5.424.532a1.924 1.924 0 012.658 0l12.844 12.844a1.883 1.883 0 010 2.657l-4.872 4.872a1.871 1.871 0 01-1.329.55zM1.438 7.175l12.845 12.844a.641.641 0 00.886 0l4.872-4.872a.626.626 0 000-.886L7.197 1.417a.642.642 0 00-.886 0L1.439 6.289a.626.626 0 000 .886z"></path></g><path fill="#263238" d="M63.262 37.909H1.879A1.881 1.881 0 010 36.03v-2.505a1.881 1.881 0 011.879-1.879h61.383a1.881 1.881 0 011.879 1.879v2.505a1.881 1.881 0 01-1.879 1.879zM1.879 32.898a.626.626 0 00-.626.626v2.505a.627.627 0 00.626.626h61.383a.627.627 0 00.626-.626v-2.505a.627.627 0 00-.626-.626zM32.739 48.687a.627.627 0 01-.486-1.022l6.721-8.271a.627.627 0 11.972.791l-6.721 8.271a.624.624 0 01-.486.231zM58.251 66.349h-1.253a.626.626 0 010-1.253h1.253a.626.626 0 010 1.253zM54.493 66.349h-13.78a.626.626 0 010-1.253h13.78a.626.626 0 010 1.253zM51.988 70.107H35.702a.626.626 0 010-1.253h16.285a.626.626 0 010 1.253zM55.432 11.229a.627.627 0 01-.6-.428l-.691-2.077a2.932 2.932 0 00-1.845-1.845l-2.077-.693a.626.626 0 010-1.187l2.077-.693a2.929 2.929 0 001.845-1.844l.691-2.078a.653.653 0 011.19 0l.691 2.078a2.928 2.928 0 001.845 1.844l2.077.693a.626.626 0 010 1.188l-2.077.693a2.932 2.932 0 00-1.845 1.845l-.691 2.077a.628.628 0 01-.59.427zm-3.03-5.637l.294.1a4.185 4.185 0 012.638 2.637l.1.294.1-.294a4.186 4.186 0 012.638-2.637l.294-.1-.294-.1a4.189 4.189 0 01-2.638-2.637l-.1-.294-.1.294a4.189 4.189 0 01-2.638 2.637z"></path><g transform="translate(6.89 9.097)"><rect width="40.087" height="22.549" rx="1" transform="translate(.626 .626)" fill="#8dd445"></rect><path fill="#263238" d="M39.46 23.801H1.879A1.881 1.881 0 010 21.922V1.879A1.881 1.881 0 011.879 0H39.46a1.881 1.881 0 011.879 1.879v20.043a1.881 1.881 0 01-1.879 1.879zM1.879 1.252a.627.627 0 00-.626.626v20.043a.627.627 0 00.626.626H39.46a.627.627 0 00.626-.626V1.878a.627.627 0 00-.626-.626z"></path></g><path fill="#edfafe" d="M50.108 32.271h6.263a1.252 1.252 0 001.253-1.253v-2.505a1.253 1.253 0 00-1.253-1.253h-6.263"></path><path fill="#263238" d="M56.372 32.899h-6.263a.626.626 0 110-1.253h6.263a.627.627 0 00.626-.626v-2.505a.627.627 0 00-.626-.626h-6.263a.626.626 0 010-1.253h6.263a1.881 1.881 0 011.879 1.879v2.505a1.881 1.881 0 01-1.879 1.879z"></path><path fill="#edfafe" d="M50.108 27.261h6.263a1.253 1.253 0 001.253-1.253v-2.505a1.252 1.252 0 00-1.253-1.253h-6.263"></path><path fill="#263238" d="M56.372 27.887h-6.263a.626.626 0 010-1.253h6.263a.627.627 0 00.626-.626v-2.505a.627.627 0 00-.626-.626h-6.263a.626.626 0 110-1.253h6.263a1.881 1.881 0 011.879 1.879v2.505a1.881 1.881 0 01-1.879 1.879z"></path><path fill="#edfafe" d="M50.108 22.25h6.263a1.253 1.253 0 001.253-1.253v-2.505a1.252 1.252 0 00-1.253-1.253h-6.263"></path><path fill="#263238" d="M56.372 22.876h-6.263a.626.626 0 110-1.253h6.263a.627.627 0 00.626-.626v-2.505a.628.628 0 00-.626-.626h-6.263a.626.626 0 110-1.253h6.263a1.88 1.88 0 011.879 1.879v2.505a1.881 1.881 0 01-1.879 1.879z"></path><g transform="translate(19.417 12.855)"><circle cx="7.516" cy="7.516" r="7.516" transform="translate(.626 .626)" fill="#fff"></circle><path fill="#263238" d="M8.143 16.285a8.143 8.143 0 118.143-8.143 8.152 8.152 0 01-8.143 8.143zm0-15.032a6.89 6.89 0 106.89 6.89 6.9 6.9 0 00-6.89-6.89z"></path></g><g><path fill="#263238" d="M39.692 29.14H15.426a.627.627 0 01-.565-.357 8.126 8.126 0 00-4.437-4.106.627.627 0 01-.4-.585v-6.188a.625.625 0 01.4-.585 8.134 8.134 0 004.438-4.108.624.624 0 01.565-.356h24.265a.624.624 0 01.565.356 8.124 8.124 0 004.44 4.108.628.628 0 01.4.585v6.188a.629.629 0 01-.4.585 8.123 8.123 0 00-4.438 4.106.627.627 0 01-.567.357zm-23.88-1.253h23.495a9.37 9.37 0 014.539-4.215v-5.349a9.359 9.359 0 01-4.539-4.215H15.813a9.37 9.37 0 01-4.539 4.215v5.349a9.363 9.363 0 014.538 4.215z"></path></g></svg>